<?xml version="1.0" encoding="utf-8"?>
<!-- Generator: Adobe Illustrator 19.0.0, SVG Export Plug-In . SVG Version: 6.00 Build 0)  -->
<svg version="1.1" id="Слой_1" xmlns="http://www.w3.org/2000/svg" xmlns:xlink="http://www.w3.org/1999/xlink" x="0px" y="0px"
	 viewBox="0 0 30 30" style="enable-background:new 0 0 30 30;" xml:space="preserve">
<style type="text/css">
	.st0{fill:#FF717E;}
</style>
<path class="st0" d="M25,0H5C3.4,0,2.1,1.3,2.1,2.9v20c0,1.6,1.3,2.9,2.9,2.9h5.7L15,30l4.3-4.3H25c1.6,0,2.9-1.3,2.9-2.9v-20
	C27.9,1.3,26.6,0,25,0z M15,4.7c2.1,0,3.9,1.7,3.9,3.9s-1.7,3.9-3.9,3.9s-3.9-1.7-3.9-3.9S12.9,4.7,15,4.7z M23.6,20H6.4v-1.3
	c0-2.9,5.7-4.4,8.6-4.4s8.6,1.6,8.6,4.4V20z"/>
</svg>
